# Blender 4.5.2 LTS
# www.blender.org
mtllib grass.mtl
o Cube
v 0.054857 0.184740 0.000000
v 0.062170 0.001398 0.000000
v -0.054846 0.184740 0.000000
v -0.062217 0.001398 0.000000
v 0.046719 0.381667 0.000000
v -0.046709 0.381667 0.000000
v 0.040559 0.545387 0.000000
v -0.040549 0.545387 0.000000
v 0.022905 0.768347 0.000000
v -0.022896 0.768347 0.000000
v 0.000009 1.001398 0.000000
vn -0.4714 -0.0080 -0.8819
vn -0.2902 -0.0076 -0.9569
vn 0.2902 -0.0075 -0.9569
vn 0.4714 -0.0080 -0.8819
vn -0.2902 -0.0073 -0.9569
vn 0.2902 -0.0073 -0.9569
vn -0.2902 -0.0062 -0.9569
vn 0.2902 -0.0062 -0.9569
vn -0.0979 -0.0051 -0.9952
vn 0.0979 -0.0052 -0.9952
vn 0.0979 -0.0048 -0.9952
vt 0.375000 0.250000
vt 0.625000 0.250000
vt 0.625000 0.500000
vt 0.375000 0.500000
s 1
usemtl Material
f 4/1/1 3/2/2 1/3/3 2/4/4
f 1/3/3 3/2/2 6/2/5 5/3/6
f 5/3/6 6/2/5 8/2/7 7/3/8
f 7/3/8 8/2/7 10/2/9 9/3/10
f 9/3/10 10/2/9 11/3/11
